<?xml version="1.0" encoding="UTF-8"?>
<svg version="1.1" xmlns="http://www.w3.org/2000/svg" width="512" height="512">
<path d="M0 0 C1.55167286 -0.00627472 3.10334424 -0.0129224 4.65501404 -0.01991272 C9.73272679 -0.04085246 14.81043947 -0.05131229 19.88818359 -0.0612793 C21.64722076 -0.06533197 23.40625778 -0.06944903 25.16529465 -0.07362938 C33.44131734 -0.09266653 41.71733125 -0.10689523 49.99337161 -0.11524135 C59.48872225 -0.12497934 68.98383766 -0.15121462 78.47910559 -0.19174224 C85.85364921 -0.22211693 93.22812626 -0.23673062 100.60273111 -0.24002236 C104.98977345 -0.24235048 109.37656418 -0.25101218 113.76353836 -0.27648354 C162.23652728 -0.54329877 205.09065957 10.66627774 240.66162109 45.17700195 C242.32828776 46.84366862 243.99495443 48.51033529 245.66162109 50.17700195 C246.27263672 50.74161133 246.88365234 51.3062207 247.51318359 51.88793945 C258.68517963 62.3709137 266.66626324 75.6794404 273.66162109 89.17700195 C274.14091064 90.08869141 274.14091064 90.08869141 274.62988281 91.01879883 C285.42977721 111.8169227 290.82294163 135.61070599 290.80206299 158.97563171 C290.80651967 160.55502579 290.80651967 160.55502579 290.81106639 162.16632682 C290.81970184 165.6759969 290.82125721 169.18563266 290.82275391 172.6953125 C290.82738546 175.21889315 290.83241057 177.7424731 290.83779907 180.26605225 C290.85088617 187.10661336 290.85739705 193.94716326 290.86180973 200.78773475 C290.86457912 205.06117167 290.86881747 209.33460636 290.8733139 213.60804176 C290.88549441 225.44910254 290.89579926 237.29016154 290.899189 249.13122845 C290.89940856 249.88757908 290.89962813 250.64392971 290.89985435 251.42320006 C290.90007262 252.18129604 290.9002909 252.93939201 290.90051579 253.72046059 C290.90095925 255.25651149 290.90140582 256.79256239 290.90185547 258.32861328 C290.9020769 259.0905379 290.90229833 259.85246252 290.90252647 260.63747577 C290.90647973 273.0001092 290.92395523 285.36268389 290.94721499 297.72529461 C290.97092361 310.42921026 290.98339046 323.13309639 290.98455691 335.83703452 C290.98547343 342.96550793 290.99122079 350.09390455 291.00937653 357.2223568 C291.02637824 363.92089529 291.02803402 370.61926298 291.01923752 377.31782532 C291.01846499 379.77769168 291.02283805 382.23756576 291.03269577 384.69741249 C291.04535105 388.05155817 291.03957326 391.40518149 291.02911377 394.75932312 C291.04119838 396.2238595 291.04119838 396.2238595 291.05352712 397.71798247 C291.00985785 403.6928527 290.36089271 408.21764427 286.16162109 412.8215332 C280.73098853 417.05007262 276.40168759 417.96858144 269.66162109 417.17700195 C261.48384953 413.25848641 255.16850776 404.8693629 249.34130859 398.07543945 C247.13996716 395.58741169 244.78073594 393.28506118 242.41162109 390.95825195 C239.95527261 388.4580401 237.69852742 385.80019679 235.41162109 383.14575195 C233.21167215 380.67080939 230.86780665 378.36986521 228.50512695 376.05175781 C226.72825468 374.24476508 225.06725237 372.38355262 223.41552734 370.4621582 C219.74758066 366.24406795 215.94489547 362.1701933 212.09912109 358.11450195 C210.69526197 356.62772416 209.29162062 355.1407407 207.88818359 353.65356445 C207.1859668 352.91009766 206.48375 352.16663086 205.76025391 351.40063477 C202.49116661 347.93683217 199.22978628 344.4659199 195.97412109 340.98950195 C195.41072021 340.39065186 194.84731934 339.79180176 194.2668457 339.17480469 C193.73325439 338.6044751 193.19966309 338.03414551 192.64990234 337.4465332 C192.19139893 336.95773682 191.73289551 336.46894043 191.26049805 335.96533203 C189.66162109 334.17700195 189.66162109 334.17700195 187.61352539 331.11354065 C185.43852 328.52142951 184.01304198 327.72992905 180.64360046 327.41751099 C179.04020029 327.38254903 177.43588016 327.3802575 175.83227539 327.40405273 C174.95372391 327.393423 174.07517242 327.38279327 173.16999817 327.37184143 C170.27469498 327.343803 167.38121653 327.35784605 164.48583984 327.37231445 C162.47514759 327.36106394 160.46446847 327.34718314 158.45381165 327.33078003 C153.16828573 327.29472094 147.883338 327.29437123 142.59771729 327.30145264 C137.20159542 327.30236509 131.80569078 327.26951353 126.40966797 327.23950195 C115.82692513 327.18561984 105.24448594 327.16946032 94.66162109 327.17700195 C95.17987254 319.31369923 96.4318426 311.8296825 98.16552734 304.1496582 C98.66388665 301.87042962 99.1619237 299.59113055 99.65966797 297.31176758 C100.44070246 293.77171588 101.22565983 290.23262146 102.0168457 286.69482422 C102.78567076 283.24457503 103.53891804 279.79119249 104.29052734 276.3371582 C104.52800186 275.2961647 104.76547638 274.2551712 105.01014709 273.18263245 C108.070584 259.01343808 107.01891459 246.61843284 99.91162109 233.80200195 C93.45662504 223.87864981 83.23979411 217.5651203 71.78662109 214.73950195 C59.91566519 213.02692165 47.93125521 215.89205035 36.36865234 218.4152832 C34.84572618 218.74118261 33.32266714 219.06646163 31.79948425 219.39115906 C28.63247084 220.06847953 25.46698231 220.75240473 22.30249023 221.44140625 C18.27760392 222.31729881 14.24956752 223.17755377 10.22029591 224.03301716 C7.08320546 224.70067037 3.94781316 225.37603516 0.81287193 226.0537014 C-0.67078875 226.37360038 -2.15491837 226.69133351 -3.63954735 227.00670815 C-24.44377243 231.43946793 -35.48003691 238.98882881 -50.24853516 253.8918457 C-51.46834527 255.11539378 -52.68860349 256.33849526 -53.9092865 257.56117249 C-57.09475008 260.75421091 -60.27415706 263.95321242 -63.45227051 267.15356445 C-66.70684026 270.4287263 -69.96719873 273.6981148 -73.22705078 276.96801758 C-79.60311929 283.36542728 -85.97279385 289.76916203 -92.33837891 296.17700195 C-100.04590713 291.83710427 -100.04590713 291.83710427 -103.05712891 288.9699707 C-103.67974609 288.38280273 -104.30236328 287.79563477 -104.94384766 287.19067383 C-105.56904297 286.58803711 -106.19423828 285.98540039 -106.83837891 285.36450195 C-107.46357422 284.7734668 -108.08876953 284.18243164 -108.73291016 283.57348633 C-110.61430702 281.78752263 -112.47926192 279.98613082 -114.33837891 278.17700195 C-114.95156982 277.58282471 -115.56476074 276.98864746 -116.1965332 276.37646484 C-143.87195123 249.1938507 -160.15974598 208.71317405 -161.33837891 170.17700195 C-161.37833984 169.20762695 -161.41830078 168.23825195 -161.45947266 167.23950195 C-162.43471608 122.26357007 -145.07521569 82.14657685 -115.33837891 49.17700195 C-114.32517578 48.05358398 -114.32517578 48.05358398 -113.29150391 46.9074707 C-99.35772108 32.28890796 -81.53473168 21.57637262 -63.33837891 13.17700195 C-62.19369141 12.64204102 -61.04900391 12.10708008 -59.86962891 11.5559082 C-40.83484458 3.30321455 -20.59343695 0.03671062 0 0 Z M-6.21337891 154.67700195 C-9.30546369 158.31474876 -9.67955681 161.3893723 -9.62744141 166.11450195 C-9.00152736 170.58048328 -5.74580628 174.36217064 -2.33837891 177.17700195 C2.99932939 178.95623805 7.82404625 179.00911132 12.97412109 176.67700195 C16.8102609 173.10849981 19.35814293 169.41814869 19.85693359 164.09106445 C19.51631352 158.86154452 17.56409337 155.74734893 13.66162109 152.17700195 C5.82692863 148.19961976 0.35577898 148.96469075 -6.21337891 154.67700195 Z M53.78662109 154.67700195 C50.69453631 158.31474876 50.32044319 161.3893723 50.37255859 166.11450195 C50.99847264 170.58048328 54.25419372 174.36217064 57.66162109 177.17700195 C62.99932939 178.95623805 67.82404625 179.00911132 72.97412109 176.67700195 C76.8102609 173.10849981 79.35814293 169.41814869 79.85693359 164.09106445 C79.51631352 158.86154452 77.56409337 155.74734893 73.66162109 152.17700195 C65.82692863 148.19961976 60.35577898 148.96469075 53.78662109 154.67700195 Z M113.78662109 154.67700195 C110.69453631 158.31474876 110.32044319 161.3893723 110.37255859 166.11450195 C110.99847264 170.58048328 114.25419372 174.36217064 117.66162109 177.17700195 C122.99932939 178.95623805 127.82404625 179.00911132 132.97412109 176.67700195 C136.8102609 173.10849981 139.35814293 169.41814869 139.85693359 164.09106445 C139.51631352 158.86154452 137.56409337 155.74734893 133.66162109 152.17700195 C125.82692863 148.19961976 120.35577898 148.96469075 113.78662109 154.67700195 Z " fill="#000000" transform="translate(206.33837890625,-0.177001953125)"/>
<path d="M0 0 C4.51767412 4.2857153 6.57374455 7.03438995 6.77740479 13.4715271 C6.745142 17.46573521 6.16000279 21.17854454 5.34667969 25.09619141 C5.13686211 26.12224236 5.13686211 26.12224236 4.92280579 27.16902161 C4.46335232 29.4035585 3.99211061 31.63539256 3.51953125 33.8671875 C3.19248529 35.43314957 2.86576962 36.99918066 2.53936768 38.5652771 C1.85552715 41.83605497 1.16539658 45.10543046 0.47119141 48.37402344 C-0.41519225 52.55158372 -1.28217466 56.73290633 -2.14404678 60.91558266 C-2.81271025 64.14666429 -3.49344167 67.37511552 -4.17760468 70.60294724 C-4.50225191 72.14337371 -4.82277306 73.68467603 -5.13898468 75.22685623 C-5.58308994 77.38538519 -6.0438366 79.53972678 -6.50878906 81.69384766 C-6.89517548 83.52962875 -6.89517548 83.52962875 -7.28936768 85.40249634 C-9.17403612 91.4363153 -12.96276112 95.63828522 -17.37652588 100.04281616 C-17.86996986 100.53796899 -18.36341384 101.03312183 -18.87181067 101.54327929 C-20.51302584 103.18776736 -22.16124614 104.82504236 -23.80957031 106.46240234 C-24.99284107 107.64510851 -26.17567072 108.82825613 -27.35809326 110.0118103 C-30.55990352 113.2141932 -33.76783254 116.41038207 -36.97691059 119.60547972 C-40.33305993 122.9491071 -43.68352773 126.29841784 -47.03460693 129.64712524 C-53.37701209 135.98331995 -59.72449721 142.31440011 -66.07383132 148.64365065 C-73.30385713 155.85130396 -80.52818919 163.06465269 -87.75205278 170.27848125 C-102.60833096 185.11386726 -117.47173128 199.94210003 -132.33984375 214.765625 C-135.2819421 213.43852241 -137.35598806 211.99772509 -139.63018799 209.71578979 C-140.25833405 209.09039307 -140.8864801 208.46499634 -141.53366089 207.82064819 C-142.21123444 207.13588409 -142.88880798 206.45112 -143.58691406 205.74560547 C-144.30926239 205.02354919 -145.03161072 204.30149292 -145.77584839 203.55755615 C-148.16132654 201.17068511 -150.53964314 198.7768088 -152.91796875 196.3828125 C-154.57091377 194.72613721 -156.22430102 193.06990305 -157.87811279 191.41409302 C-162.22920463 187.05536583 -166.57425688 182.69066576 -170.91809082 178.32470703 C-175.35192746 173.87040995 -179.79143284 169.42177082 -184.23046875 164.97265625 C-192.93916035 156.24251645 -201.64148383 147.50605806 -210.33984375 138.765625 C-208.78281747 135.04723263 -206.50353839 132.67295041 -203.6734314 129.83178711 C-203.19550789 129.34933249 -202.71758439 128.86687788 -202.22517836 128.36980343 C-200.6240957 126.75607097 -199.0159595 125.14956134 -197.40771484 123.54296875 C-196.25745204 122.38672095 -195.10760049 121.23006392 -193.95812988 120.07302856 C-190.83460427 116.93183002 -187.70461105 113.79715372 -184.5728755 110.66414261 C-182.61549946 108.70534482 -180.65955454 106.74512979 -178.70412064 104.78439331 C-171.87893937 97.94070549 -165.0486061 91.1022087 -158.21337891 84.26855469 C-151.84794274 77.90431917 -145.4937347 71.52902528 -139.14472139 65.14840984 C-133.68933387 59.6668409 -128.22623217 54.19304149 -122.75709975 48.72518635 C-119.49261306 45.46120887 -116.23128639 42.19422215 -112.97767258 38.91940308 C-109.91510937 35.837427 -106.84302318 32.76526799 -103.76348877 29.70025253 C-102.63778393 28.57663328 -101.51545427 27.44962029 -100.39686966 26.31891251 C-92.5342562 18.3766647 -86.2398953 13.31460756 -75.05688477 10.91870117 C-74.37766968 10.77020721 -73.69845459 10.62171326 -72.99865723 10.46871948 C-70.78258864 9.98749785 -68.56353073 9.5223651 -66.34375 9.05859375 C-64.78478751 8.72617137 -63.22594647 8.39317896 -61.66722107 8.05964661 C-58.41173394 7.36581823 -55.15464653 6.68022618 -51.89624023 6.00024414 C-47.73912952 5.13183102 -43.58721352 4.24093187 -39.43628025 3.34351635 C-36.22198467 2.65160079 -33.00502279 1.97280317 -29.78715324 1.29772377 C-28.25578935 0.97464104 -26.7253096 0.6473354 -25.19580269 0.31557274 C-6.89619325 -3.63805854 -6.89619325 -3.63805854 0 0 Z " fill="#000000" transform="translate(278.33984375,244.234375)"/>
<path d="M0 0 C2.94209835 1.32710259 5.01614431 2.76789991 7.29034424 5.04983521 C7.9184903 5.67523193 8.54663635 6.30062866 9.19381714 6.94497681 C10.21017746 7.97212296 10.21017746 7.97212296 11.24707031 9.02001953 C11.96941864 9.74207581 12.69176697 10.46413208 13.43600464 11.20806885 C15.82148279 13.59493989 18.19979939 15.9888162 20.578125 18.3828125 C22.23107002 20.03948779 23.88445727 21.69572195 25.53826904 23.35153198 C29.88936088 27.71025917 34.23441313 32.07495924 38.57824707 36.44091797 C43.01208371 40.89521505 47.45158909 45.34385418 51.890625 49.79296875 C60.5993166 58.52310855 69.30164008 67.25956694 78 76 C75.4964934 81.2636073 71.53686496 84.79212485 67.4375 88.875 C66.66341797 89.66519531 65.88933594 90.45539063 65.09179688 91.26953125 C53.09842029 103.272894 40.39630541 109.44254611 23.375 109.5625 C7.78735187 109.32716745 -4.19105948 104.1625017 -16 94 C-25.56200385 82.82621899 -31.40716219 70.09102714 -31.375 55.3125 C-31.37338867 54.53084473 -31.37177734 53.74918945 -31.37011719 52.94384766 C-31.22138549 45.82076581 -29.69276185 39.60524162 -27 33 C-26.72285156 32.278125 -26.44570313 31.55625 -26.16015625 30.8125 C-20.82995594 18.62918501 -9.34760226 9.1082611 0 0 Z " fill="#000000" transform="translate(46,403)"/>
</svg>
